<?xml version="1.0" standalone="no"?>
<!DOCTYPE svg PUBLIC "-//W3C//DTD SVG 20010904//EN"
 "http://www.w3.org/TR/2001/REC-SVG-20010904/DTD/svg10.dtd">
<svg version="1.0" xmlns="http://www.w3.org/2000/svg"
 width="172.000000pt" height="172.000000pt" viewBox="0 0 172.000000 172.000000"
 preserveAspectRatio="xMidYMid meet">
<metadata>
Created by potrace 1.11, written by Peter Selinger 2001-2013
</metadata>
<g transform="translate(0.000000,172.000000) scale(0.100000,-0.100000)"
fill="#000000" stroke="none">
<path d="M155 1500 c2 -4 19 -13 37 -21 27 -11 130 -79 186 -124 42 -34 161
-159 203 -215 93 -124 171 -307 184 -439 11 -107 11 -118 5 -174 -6 -59 3 -77
15 -30 23 90 25 105 25 193 1 124 -58 290 -152 428 -61 90 -227 243 -328 302
-91 53 -185 96 -175 80z"/>
<path d="M457 1431 c12 -12 26 -21 32 -21 5 0 11 -4 13 -10 2 -5 35 -42 73
-82 39 -40 91 -98 115 -128 25 -30 47 -57 50 -60 21 -19 120 -188 146 -250 73
-173 79 -339 15 -387 -14 -10 -13 -11 4 -8 11 2 20 4 20 5 0 8 139 24 210 24
113 0 252 -26 372 -68 l41 -15 -3 29 c-20 153 -130 352 -278 503 -78 79 -264
227 -286 227 -5 0 -11 4 -13 8 -15 39 -381 218 -503 246 l-30 7 22 -20z"/>
<path d="M264 1346 c89 -159 105 -373 46 -598 -23 -90 -77 -226 -119 -302
l-29 -54 56 28 c78 38 228 85 362 114 14 3 49 11 78 17 l53 12 -2 81 c-2 79
-18 176 -37 226 -5 14 -10 28 -10 33 -1 4 -18 40 -39 80 -55 106 -96 161 -197
260 -38 37 -95 86 -128 108 l-60 41 26 -46z"/>
<path d="M1167 293 c-3 -2 -69 -10 -147 -19 -36 -3 -74 -8 -85 -10 -11 -3 -40
-7 -65 -10 -25 -3 -52 -7 -60 -9 -8 -3 -38 -7 -65 -10 -28 -3 -66 -7 -85 -10
-196 -26 -374 -27 -500 0 -17 4 -20 3 -10 -3 68 -40 447 -51 605 -19 11 3 43
8 70 11 76 11 115 17 139 22 11 2 36 7 55 10 18 3 41 7 50 9 62 11 150 24 216
31 27 3 52 7 54 10 4 4 -168 1 -172 -3z"/>
<path d="M1358 293 c6 -2 18 -2 25 0 6 3 1 5 -13 5 -14 0 -19 -2 -12 -5z"/>
</g>
</svg>
